<?xml version="1.0" encoding="utf-8"?><svg width="215" height="185" viewBox="0 0 215 185" xmlns="http://www.w3.org/2000/svg" xmlns:xlink="http://www.w3.org/1999/xlink"><svg width="21" height="21" fill="none" viewBox="-1 -1 21 21" id="add" x="164" y="110" xmlns="http://www.w3.org/2000/svg"><path d="M10.29 18.979V10.33h8.689V8.688H10.29V0H8.648v8.688H0v1.642h8.648v8.649h1.642z" fill="#001A34"/></svg><svg width="12" height="8" fill="none" viewBox="-1 -1 12 8" id="arrow-down" x="95" y="64" xmlns="http://www.w3.org/2000/svg"><mask id="aba" fill="#fff"><path fill-rule="evenodd" clip-rule="evenodd" d="M1.8.37A1 1 0 00.386 1.783L4.293 5.69a1 1 0 001.414 0l3.907-3.906A1 1 0 108.2.369L5 3.57 1.8.369z"/></mask><path d="M5 3.569L3.586 4.983 5 6.397l1.414-1.414L5 3.57zM1.8 1.784a1 1 0 01-1.414 0l2.828-2.829a3 3 0 00-4.242 0L1.8 1.784zm0-1.415a1 1 0 010 1.415l-2.828-2.829a3 3 0 000 4.243L1.8.369zm3.907 3.907L1.8.37l-2.828 2.829 3.907 3.907 2.828-2.829zm-1.414 0a1 1 0 011.414 0L2.88 7.105a3 3 0 004.242 0L4.293 4.276zM8.2.37L4.293 4.276 7.12 7.105l3.907-3.907L8.2.369zm0 1.415a1 1 0 010-1.415l2.828 2.829a3 3 0 000-4.243L8.2 1.784zm1.414 0a1 1 0 01-1.414 0l2.828-2.829a3 3 0 00-4.242 0l2.828 2.829zm-3.2 3.2l3.2-3.2-2.828-2.829-3.2 3.2 2.828 2.828zm-6.028-3.2l3.2 3.2 2.828-2.83-3.2-3.199L.386 1.784z" fill="#fff" mask="url(#aba)"/></svg><svg width="12" height="8" fill="none" viewBox="-1 -1 12 8" id="arrow-down-black" x="64" y="64" xmlns="http://www.w3.org/2000/svg"><g clip-path="url(#acclip0)"><mask id="aca" fill="#fff"><path fill-rule="evenodd" clip-rule="evenodd" d="M1.8.37A1 1 0 00.386 1.784L4.293 5.69a1 1 0 001.414 0l3.907-3.907A1 1 0 108.2.37L5 3.57 1.8.37z"/></mask><path d="M5 3.57L3.586 4.983 5 6.397l1.414-1.414L5 3.569zM1.8 1.783a1 1 0 01-1.414 0l2.828-2.829a3 3 0 00-4.242 0L1.8 1.784zM1.8.37a1 1 0 010 1.414l-2.828-2.829a3 3 0 000 4.243L1.8.37zm3.907 3.906L1.8.37l-2.828 2.828 3.907 3.907 2.828-2.829zm-1.414 0a1 1 0 011.414 0L2.88 7.105a3 3 0 004.242 0L4.293 4.276zM8.2.37L4.293 4.276 7.12 7.105l3.907-3.907L8.2.37zm0 1.414A1 1 0 018.2.37l2.828 2.828a3 3 0 000-4.243L8.2 1.784zm1.414 0a1 1 0 01-1.414 0l2.828-2.829a3 3 0 00-4.242 0l2.828 2.829zm-3.2 3.2l3.2-3.2-2.828-2.829-3.2 3.2 2.828 2.829zm-6.028-3.2l3.2 3.2 2.828-2.829-3.2-3.2L.386 1.784z" fill="#000" mask="url(#aca)"/></g><defs><clipPath id="acclip0"><path fill="#fff" d="M0 0h10v6H0z"/></clipPath></defs></svg><svg width="8" height="12" fill="none" viewBox="-1 -1 8 12" id="arrow-right-black" x="186" y="18" xmlns="http://www.w3.org/2000/svg"><g clip-path="url(#adclip0)"><mask id="ada" fill="#fff"><path fill-rule="evenodd" clip-rule="evenodd" d="M.37 8.2a1 1 0 101.414 1.414L5.69 5.707a1 1 0 000-1.414L1.784.386A1 1 0 10.369 1.801L3.57 5 .369 8.2z"/></mask><path d="M3.569 5l1.414 1.414L6.397 5 4.983 3.586 3.57 5zM1.784 8.2a1 1 0 010 1.414l-2.829-2.828a3 3 0 000 4.242L1.784 8.2zm-1.415 0a1 1 0 011.415 0l-2.829 2.828a3 3 0 004.243 0L.369 8.2zm3.907-3.907L.37 8.2l2.829 2.828 3.907-3.906-2.829-2.829zm0 1.414a1 1 0 010-1.414l2.829 2.829a3 3 0 000-4.243L4.276 5.707zM.37 1.801l3.907 3.906L7.105 2.88 3.198-1.028.369 1.801zm1.415 0a1 1 0 01-1.415 0l2.829-2.829a3 3 0 00-4.243 0l2.829 2.829zm0-1.415a1 1 0 010 1.415l-2.829-2.829a3 3 0 000 4.243L1.784.386zm3.2 3.2l-3.2-3.2-2.829 2.829 3.2 3.2 2.828-2.829zm-3.2 6.028l3.2-3.2-2.83-2.828-3.199 3.2 2.829 2.828z" fill="#000" mask="url(#ada)"/></g><defs><clipPath id="adclip0"><path fill="#fff" transform="rotate(-90 5 5)" d="M0 0h10v6H0z"/></clipPath></defs></svg><svg width="32" height="32" fill="none" viewBox="-1 -1 32 32" id="char-remove" y="44" xmlns="http://www.w3.org/2000/svg"><path fill="#D8D8D8" fill-opacity=".01" d="M0 0h30v30H0z"/><mask id="aea" fill="#fff"><path fill-rule="evenodd" clip-rule="evenodd" d="M4.85 5.937v1.269c0 .299.244.544.543.544h19.214c.299 0 .544-.245.544-.544V5.937c0-.603-.485-1.088-1.088-1.088h-5.075l-.426-.847a1.087 1.087 0 00-.975-.603h-5.179c-.412 0-.788.231-.97.603l-.426.847H5.937c-.603 0-1.088.485-1.088 1.088zm17.89 18.624l.924-14.786a.543.543 0 00-.539-.575H6.88a.544.544 0 00-.544.575l.924 14.786a2.177 2.177 0 002.17 2.04h11.14a2.177 2.177 0 002.17-2.04z"/></mask><path d="M18.988 4.85l-.894.449.277.55h.617v-1zm-.426-.848l-.895.447.001.002.894-.449zm-7.124 0l.894.45.005-.011-.899-.439zm-.426.847v1h.617l.277-.55-.894-.45zm12.652 4.926l.998.063v-.005l-.998-.058zm-.924 14.786l.998.064v-.001l-.998-.063zM6.336 9.775l-.999.058v.005l.999-.063zm.924 14.786l-.998.063.998-.063zM5.85 7.206V5.937h-2v1.269h2zm-.457-.456c.253 0 .456.203.456.456h-2c0 .851.693 1.544 1.544 1.544v-2zm19.214 0H5.393v2h19.214v-2zm-.456.456c0-.253.203-.456.456-.456v2c.851 0 1.544-.693 1.544-1.544h-2zm0-1.269v1.269h2V5.937h-2zm-.088-.088c.05 0 .088.038.088.088h2a2.085 2.085 0 00-2.088-2.088v2zm-5.075 0h5.075v-2h-5.075v2zm-1.32-1.398l.426.848 1.787-.899-.426-.847-1.787.898zm-.08-.052c.034 0 .063.018.08.05l1.788-.894a2.087 2.087 0 00-1.869-1.156v2zm-5.18 0h5.18v-2h-5.18v2zm-.071.042a.075.075 0 01.071-.042v-2c-.789 0-1.517.444-1.868 1.165l1.797.877zm-.431.858l.426-.848-1.787-.898-.426.847 1.787.899zm-5.969.55h5.075v-2H5.937v2zm-.088.088c0-.05.038-.088.088-.088v-2a2.085 2.085 0 00-2.088 2.088h2zm16.817 3.776l-.924 14.786 1.996.125.924-14.786-1.996-.125zm.459.487a.456.456 0 01-.46-.483l1.998.116A1.544 1.544 0 0023.125 8.2v2zm-16.245 0h16.245v-2H6.88v2zm.454-.483a.456.456 0 01-.454.483v-2c-.886 0-1.594.744-1.543 1.633l1.997-.116zM8.258 24.5L7.334 9.713l-1.996.125.924 14.786 1.996-.125zm1.173 1.102a1.177 1.177 0 01-1.173-1.103l-1.996.127A3.177 3.177 0 009.431 27.6v-2zm11.138 0H9.431v2h11.138v-2zm1.173-1.103a1.177 1.177 0 01-1.173 1.103v2a3.177 3.177 0 003.169-2.976l-1.996-.127z" fill="#001A34" mask="url(#aea)"/></svg><svg version="1.1" id="chat" y="106" viewBox="-1 -1 24 24" xml:space="preserve" width="24" height="24" xmlns="http://www.w3.org/2000/svg"><style>.afst0{fill:none;stroke:#fff;stroke-linecap:round;stroke-linejoin:round}</style><path class="afst0" d="M16.4 20c1.5 1 3.3 1.5 5.1 1.5-.9-1.2-1.7-2.5-2.4-3.9 3.7-4.5 3-11.1-1.5-14.8S6.5-.1 2.9 4.4s-3 11.1 1.5 14.8c3.4 2.7 8.2 3.1 12 .8z"/><circle class="afst0" cx="5.3" cy="11" r="1.7"/><circle class="afst0" cx="11" cy="11" r="1.7"/><circle class="afst0" cx="16.7" cy="11" r="1.7"/></svg><svg width="11" height="17" fill="none" viewBox="-1 -1 11 17" id="chat-back" x="197" y="36" xmlns="http://www.w3.org/2000/svg"><path d="M.913 6.523L7.21.226A.768.768 0 017.757 0c.207 0 .402.08.547.226l.464.464a.775.775 0 010 1.094L3.48 7.072l5.294 5.294c.146.145.226.34.226.547a.77.77 0 01-.226.547l-.464.464a.769.769 0 01-.547.226.769.769 0 01-.547-.226L.913 7.62a.77.77 0 01-.226-.549.77.77 0 01.226-.55z" fill="#001A34"/></svg><svg width="11" height="18" fill="none" viewBox="-1 -1 11 18" id="chat-back-big" x="186" xmlns="http://www.w3.org/2000/svg"><path d="M.226 7.448L6.523 1.15A.768.768 0 017.07.925c.207 0 .402.08.547.226l.464.464a.775.775 0 010 1.094L2.793 7.997l5.294 5.294c.146.145.226.34.226.547a.77.77 0 01-.226.547l-.464.464a.769.769 0 01-.547.226.769.769 0 01-.548-.226L.226 8.546A.77.77 0 010 7.997a.77.77 0 01.226-.55z" fill="#001A34"/></svg><svg width="32" height="32" fill="none" viewBox="-1 -1 32 32" id="chat-ban" x="32" y="44" xmlns="http://www.w3.org/2000/svg"><path fill="#D8D8D8" fill-opacity=".01" d="M0 0h30v30H0z"/><mask id="aia" fill="#fff"><path fill-rule="evenodd" clip-rule="evenodd" d="M20.176 14.914h-1v-1.021h7.159v1.021h-6.16zM11.42 14a3.772 3.772 0 100-7.544 3.772 3.772 0 000 7.544zm4.772-3.773a4.772 4.772 0 11-9.544.001 4.772 4.772 0 019.544 0zm-2.054 5.966a6.498 6.498 0 01-5.436 0H8.08a5.012 5.012 0 00-5.011 5.011v1.551c0 .988.801 1.79 1.79 1.79h13.124a1.79 1.79 0 001.79-1.79v-1.55a5.012 5.012 0 00-5.012-5.012h-.622zm.622 1h-.412a7.491 7.491 0 01-5.857 0H8.08a4.012 4.012 0 00-4.011 4.011v1.551c0 .436.354.79.79.79h13.124a.79.79 0 00.79-.79v-1.55a4.012 4.012 0 00-4.012-4.012z"/></mask><path d="M19.176 14.914h-1v1h1v-1zm0-1.021v-1h-1v1h1zm7.159 0h1v-1h-1v1zm0 1.021v1h1v-1h-1zm-12.196 1.28v-1h-.22l-.198.09.418.91zm-5.436 0l.415-.91-.198-.09h-.217v1zm5.646 1v-1h-.203l-.187.078.39.921zm-5.857 0l.39-.922-.187-.079h-.203v1zm10.684-1.28h1v-2h-1v2zm-1-1.021v.021h2v-.021h-2zm0-.979v.979h2v-.979h-2zm0-.021v.021h2v-.021h-2zm2-1h-1v2h1v-2zm5.159 0h-5.16v2h5.16v-2zm1 0h-1v2h1v-2zm1 1.021v-.021h-2v.021h2zm0 .979v-.979h-2v.979h2zm0 .021v-.021h-2v.021h2zm-2 1h1v-2h-1v2zm-5.16 0h5.16v-2h-5.16v2zm-5.982-5.687A2.772 2.772 0 0111.421 13v2a4.772 4.772 0 004.772-4.773h-2zm-2.772-2.772a2.772 2.772 0 012.772 2.772h2a4.772 4.772 0 00-4.772-4.772v2zm-2.773 2.772a2.772 2.772 0 012.773-2.772v-2a4.772 4.772 0 00-4.773 4.772h2zM11.421 13a2.772 2.772 0 01-2.773-2.773h-2A4.772 4.772 0 0011.421 15v-2zm0 3a5.772 5.772 0 005.772-5.773h-2A3.772 3.772 0 0111.421 14v2zm-5.773-5.773A5.772 5.772 0 0011.421 16v-2a3.772 3.772 0 01-3.773-3.773h-2zm5.773-5.772a5.772 5.772 0 00-5.773 5.772h2a3.772 3.772 0 013.773-3.772v-2zm5.772 5.772a5.772 5.772 0 00-5.772-5.772v2a3.772 3.772 0 013.772 3.772h2zm-3.472 5.057a5.497 5.497 0 01-2.3.506v2c1.12 0 2.182-.25 3.135-.688l-.835-1.818zm-2.3.506a5.51 5.51 0 01-2.303-.506l-.831 1.818a7.51 7.51 0 003.134.688v-2zm-2.718-.597H8.08v2h.623v-2zm-.623 0a6.012 6.012 0 00-6.011 6.011h2a4.012 4.012 0 014.01-4.01v-2zm-6.011 6.011v1.551h2v-1.55h-2zm0 1.551a2.79 2.79 0 002.79 2.79v-2a.79.79 0 01-.79-.79h-2zm2.79 2.79h13.124v-2H4.858v2zm13.124 0a2.79 2.79 0 002.79-2.79h-2a.79.79 0 01-.79.79v2zm2.79-2.79v-1.55h-2v1.55h2zm0-1.55a6.012 6.012 0 00-6.012-6.012v2a4.012 4.012 0 014.011 4.011h2zm-6.012-6.012h-.622v2h.622v-2zm-.412 3h.412v-2h-.412v2zm-2.928.597a8.491 8.491 0 003.319-.676l-.781-1.842a6.49 6.49 0 01-2.538.518v2zm-3.318-.676a8.497 8.497 0 003.318.676v-2c-.9 0-1.756-.187-2.54-.518l-.778 1.842zm-.023.08h.412v-2H8.08v2zm-3.011 3.01a3.012 3.012 0 013.01-3.01v-2a5.012 5.012 0 00-5.01 5.01h2zm0 1.551v-1.55h-2v1.55h2zm-.21-.21a.21.21 0 01.21.21h-2c0 .988.801 1.79 1.79 1.79v-2zm13.124 0H4.858v2h13.125v-2zm-.21.21a.21.21 0 01.21-.21v2a1.79 1.79 0 001.79-1.79h-2zm0-1.55v1.55h2v-1.55h-2zm-3.012-3.012a3.012 3.012 0 013.011 3.011h2a5.012 5.012 0 00-5.01-5.01v2z" fill="#001A34" mask="url(#aia)"/></svg><svg width="24" height="15" fill="none" viewBox="-1 -1 24 15" id="chat-check" x="24" y="106" xmlns="http://www.w3.org/2000/svg"><path d="M1 6.296l4.546 5.296L14.356 1M10.197 9.414l1.85 2.178L20.856 1" stroke="#1D67FF" stroke-linecap="round" stroke-linejoin="round"/></svg><svg width="12" height="9" fill="none" viewBox="-1 -1 12 9" id="chat-drop" x="82" y="106" xmlns="http://www.w3.org/2000/svg"><path d="M5.452 6.453l4.024-4.696a.625.625 0 00.145-.408c0-.154-.051-.3-.145-.408L9.18.595a.447.447 0 00-.7 0L5.101 4.538 1.718.591a.459.459 0 00-.35-.168.46.46 0 00-.35.168L.722.937a.625.625 0 00-.144.408c0 .155.05.3.144.408l4.028 4.7a.459.459 0 00.35.168c.134 0 .259-.06.352-.168z" fill="#001A34"/></svg><svg width="32" height="32" fill="none" viewBox="-1 -1 32 32" id="chat-question" x="82" xmlns="http://www.w3.org/2000/svg"><path fill="#D8D8D8" fill-opacity=".01" d="M0 0h30v30H0z"/><mask id="ala" fill="#fff"><path fill-rule="evenodd" clip-rule="evenodd" d="M6.891 4.188h16.216a2.705 2.705 0 012.703 2.703v12.163a2.705 2.705 0 01-2.703 2.702h-6.08l-5.275 3.957a.508.508 0 01-.807-.41v-3.547H6.891a2.705 2.705 0 01-2.703-2.703V6.891a2.705 2.705 0 012.703-2.703zm6.099 9.647l-.474 2.766L15 15.295l2.484 1.306-.474-2.766 2.01-1.96-2.778-.403L15 8.955l-1.242 2.517-2.778.404 2.01 1.959z"/></mask><path d="M17.026 21.756v-1h-.333l-.267.2.6.8zm-5.274 3.957l.591.806.009-.006-.6-.8zm-.807-3.957h1v-1h-1v1zm1.57-5.155l-.985-.17-.343 1.998 1.794-.943-.465-.885zm.475-2.766l.986.169.088-.518-.376-.367-.698.716zm2.01 1.46l.465-.885-.465-.245-.466.245.466.885zm2.484 1.306l-.465.885 1.793.943-.342-1.997-.986.169zm-.474-2.766l-.698-.716-.377.367.089.518.986-.17zm2.01-1.96l.697.717 1.451-1.415-2.005-.29-.144.989zm-2.778-.403l-.897.443.233.471.52.076.144-.99zM15 8.955l.896-.442L15 6.696l-.897 1.817.897.442zm-1.242 2.517l.144.99.52-.076.232-.471-.896-.443zm-2.778.404l-.144-.99-2.005.291 1.451 1.415.698-.716zm12.127-8.688H6.891v2h16.216v-2zm3.703 3.703a3.705 3.705 0 00-3.703-3.703v2c.939 0 1.703.765 1.703 1.703h2zm0 12.163V6.89h-2v12.162h2zm-3.703 3.702a3.705 3.705 0 003.703-3.703h-2c0 .939-.764 1.703-1.703 1.703v2zm-6.08 0h6.08v-2h-6.08v2zm-4.675 3.757l5.274-3.957-1.2-1.6-5.274 3.957 1.2 1.6zm-2.407-1.21c0 1.23 1.4 1.949 2.399 1.216l-1.184-1.612a.492.492 0 01.785.396h-2zm0-3.547v3.547h2v-3.547h-2zm-3.054 1h4.054v-2H6.891v2zm-3.703-3.703a3.705 3.705 0 003.703 3.703v-2a1.705 1.705 0 01-1.703-1.703h-2zm0-12.162v12.162h2V6.891h-2zm3.703-3.703a3.705 3.705 0 00-3.703 3.703h2c0-.938.765-1.703 1.703-1.703v-2zm6.61 13.582l.475-2.766-1.972-.338-.474 2.766 1.971.338zm1.034-2.36l-2.485 1.306.93 1.77 2.485-1.306-.93-1.77zm3.414 1.306l-2.484-1.306-.93 1.77 2.484 1.306.93-1.77zm-1.925-1.712l.474 2.766 1.972-.338-.475-2.766-1.971.338zm2.297-2.844l-2.01 1.959 1.397 1.432 2.01-1.96-1.397-1.431zm-2.223 1.302l2.778.403.287-1.979-2.777-.403-.288 1.979zm-1.995-3.064l1.242 2.517 1.794-.885-1.242-2.517-1.794.885zm.551 2.517l1.242-2.517-1.793-.885-1.242 2.517 1.793.885zm-3.53.95l2.777-.403-.287-1.98-2.778.404.288 1.98zm2.564.254l-2.01-1.96-1.396 1.433 2.01 1.959 1.396-1.432z" fill="#001A34" mask="url(#ala)"/></svg><svg width="27" height="27" fill="none" viewBox="-1 -1 27 27" id="chat-send" x="114" xmlns="http://www.w3.org/2000/svg"><mask id="ama" fill="#fff"><path fill-rule="evenodd" clip-rule="evenodd" d="M.525.418V23.368l1-.5 20.832-10.416 1.118-.559-1.118-.559L1.525.918l-1-.5zm1 1.618V21.75l19.714-9.857L1.525 2.036zm-1 12.152l1-.2 7.926-1.585 2.549-.51-2.55-.51-7.925-1.585-1-.2v4.59zm1-3.37v2.15L6.9 11.894l-5.376-1.075z"/></mask><path d="M.525.418l.447-.894L-.475-1.2V.418h1zm0 22.95h-1v1.618l1.447-.723-.447-.895zm22.95-11.475l.447.895 1.79-.895-1.79-.894-.447.894zM1.525 21.75h-1v1.618l1.447-.723-.447-.895zm0-19.714l.447-.894L.525.418v1.618h1zm19.714 9.857l.447.895 1.79-.895-1.79-.894-.447.894zM.525 14.188h-1v1.22l1.196-.24-.196-.98zm1-.2l.196.98-.196-.98zm7.926-1.585l-.197-.98.197.98zm2.549-.51l.196.98v-1.96l-.196.98zm-2.55-.51l.197-.98-.196.98zM1.526 9.798l-.196.98.196-.98zm-1-.2l.196-.98-1.196-.24v1.22h1zm1 3.37h-1v1.22l1.196-.239-.196-.98zm0-2.15l.196-.98-1.196-.24v1.22h1zM6.9 11.893l.196.98v-1.96l-.196.98zM1.525 1.536V.418h-2v1.118h2zm0 20.714V1.536h-2V22.25h2zm0 1.118V22.25h-2v1.118h2zm-.447-1.394l-1 .5.894 1.789 1-.5-.894-1.79zM21.91 11.558L1.078 21.974l.894 1.789 20.832-10.416-.894-1.79zm1.118-.56l-1.118.56.894 1.789 1.118-.56L23.028 11zm-1.118 1.23l1.118.56.894-1.79-1.118-.558-.894 1.789zM1.078 1.814L21.91 12.229l.894-1.79L1.972.025l-.894 1.789zm-1-.5l1 .5.894-1.79-1-.5-.894 1.79zM2.525 21.75V2.036h-2V21.75h2zM20.792 11L1.078 20.856l.894 1.789 19.714-9.857-.894-1.79zM1.078 2.93l19.714 9.857.894-1.79L1.972 1.143 1.078 2.93zM.72 15.169l1-.2-.392-1.961-1 .2.392 1.96zm1-.2l7.926-1.585-.393-1.962-7.925 1.586.392 1.96zm7.926-1.585l2.55-.51-.393-1.961-2.55.51.393 1.96zm2.55-2.471l-2.55-.51-.393 1.96 2.55.51.392-1.96zm-2.55-.51L1.72 8.818l-.392 1.96 7.925 1.586.393-1.961zM1.72 8.818l-1-.2-.392 1.96 1 .2.392-1.96zm-2.196.78v1.02h2v-1.02h-2zm0 1.02v2.55h2v-2.55h-2zm0 2.55v1.02h2v-1.02h-2zm3-.2v-2.15h-2v2.15h2zm4.18-2.055l-5.376 1.075.392 1.961 5.376-1.075-.392-1.961zm-5.376.886l5.376 1.075.392-1.961-5.376-1.076-.392 1.962z" fill="#001A34" mask="url(#ama)"/></svg><svg width="32" height="32" fill="none" viewBox="-1 -1 32 32" id="chat-warn" x="82" y="32" xmlns="http://www.w3.org/2000/svg"><path fill="#D8D8D8" fill-opacity=".01" d="M0 0h30v30H0z"/><mask id="ana" fill="#fff"><path fill-rule="evenodd" clip-rule="evenodd" d="M15 4.19C9.028 4.19 4.187 9.03 4.187 15c0 5.97 4.84 10.81 10.811 10.81 5.97 0 10.811-4.84 10.811-10.81 0-5.97-4.84-10.81-10.81-10.81zm-1.352 5.459a1.352 1.352 0 012.703 0v5.757a1.352 1.352 0 01-2.703 0V9.649zm0 10.967a1.352 1.352 0 102.704 0 1.352 1.352 0 00-2.704 0z"/></mask><path d="M5.188 15c0-5.418 4.393-9.81 9.811-9.81v-2C8.477 3.19 3.19 8.476 3.19 15h2zM15 24.81c-5.418 0-9.81-4.392-9.81-9.81h-2c0 6.523 5.288 11.81 11.81 11.81v-2zM24.81 15c0 5.418-4.393 9.81-9.81 9.81v2c6.522 0 11.81-5.287 11.81-11.81h-2zM15 5.19c5.417 0 9.81 4.392 9.81 9.81h2c0-6.523-5.288-11.81-11.81-11.81v2zm0 2.107a2.352 2.352 0 00-2.352 2.352h2c0-.194.158-.352.351-.352v-2zm2.35 2.352A2.352 2.352 0 0015 7.297v2c.193 0 .35.158.35.352h2zm0 5.757V9.649h-2v5.757h2zM15 17.756a2.352 2.352 0 002.35-2.35h-2a.352.352 0 01-.35.35v2zm-2.352-2.35a2.352 2.352 0 002.351 2.35v-2a.352.352 0 01-.351-.35h-2zm0-5.757v5.757h2V9.649h-2zm2.351 11.319a.352.352 0 01-.351-.352h-2a2.352 2.352 0 002.351 2.352v-2zm.351-.352a.352.352 0 01-.35.352v2a2.352 2.352 0 002.35-2.352h-2zm-.35-.351c.193 0 .35.157.35.351h2A2.352 2.352 0 0015 18.265v2zm-.352.351c0-.194.158-.351.351-.351v-2a2.352 2.352 0 00-2.351 2.351h2z" fill="#001A34" mask="url(#ana)"/></svg><svg width="19" height="15" fill="none" viewBox="-1 -1 19 15" id="check-green" x="113" y="150" xmlns="http://www.w3.org/2000/svg"><mask id="aoa" fill="#fff"><path fill-rule="evenodd" clip-rule="evenodd" d="M15.842 2.498a1 1 0 10-1.414-1.414l-9.331 9.331-3.248-3.247A1 1 0 10.435 8.582l3.955 3.955a1 1 0 001.414 0L15.842 2.498z"/></mask><path d="M5.097 10.415L3.683 11.83l1.414 1.414L6.51 11.83l-1.414-1.415zm9.331-7.917a1 1 0 010-1.414l2.829 2.829a3 3 0 000-4.243l-2.829 2.828zm1.414 0a1 1 0 01-1.414 0L17.257-.33a3 3 0 00-4.243 0l2.828 2.828zM6.511 11.83l9.331-9.332L13.014-.33 3.683 9.001 6.51 11.83zM.435 8.582l3.248 3.248L6.51 9 3.264 5.754.435 8.582zm1.414 0a1 1 0 01-1.414 0l2.829-2.828a3 3 0 00-4.243 0l2.828 2.828zm0-1.414a1 1 0 010 1.414L-.979 5.754a3 3 0 000 4.243l2.828-2.829zm3.955 3.955L1.849 7.168-.979 9.997l3.954 3.954 2.829-2.828zm-1.414 0a1 1 0 011.414 0L2.975 13.95a3 3 0 004.243 0L4.39 11.123zM14.428 1.084L4.39 11.123l2.828 2.828L17.257 3.913l-2.829-2.829z" fill="#2BDF89" mask="url(#aoa)"/></svg><svg width="19" height="15" fill="none" viewBox="-1 -1 19 15" id="check-item" x="132" y="150" xmlns="http://www.w3.org/2000/svg"><mask id="apa" fill="#fff"><path fill-rule="evenodd" clip-rule="evenodd" d="M15.842 2.498a1 1 0 00-1.414-1.414l-9.331 9.332-3.248-3.248A1 1 0 00.435 8.582l3.955 3.955a1 1 0 001.414 0L15.842 2.498z"/></mask><path d="M5.097 10.416L3.683 11.83l1.414 1.414L6.51 11.83l-1.414-1.414zm9.331-7.918a1 1 0 010-1.414l2.829 2.829a3 3 0 000-4.243l-2.829 2.828zm1.414 0a1 1 0 01-1.414 0L17.257-.33a3 3 0 00-4.243 0l2.828 2.828zM6.511 11.83l9.331-9.332L13.014-.33 3.683 9.001 6.51 11.83zM.435 8.582l3.248 3.248L6.51 9 3.264 5.754.435 8.582zm1.414 0a1 1 0 01-1.414 0l2.829-2.828a3 3 0 00-4.243 0l2.828 2.828zm0-1.414a1 1 0 010 1.414L-.979 5.754a3 3 0 000 4.243l2.828-2.829zm3.955 3.955L1.849 7.168-.979 9.997l3.954 3.954 2.829-2.828zm-1.414 0a1 1 0 011.414 0L2.975 13.95a3 3 0 004.243 0L4.39 11.123zM14.428 1.084L4.39 11.123l2.828 2.828L17.257 3.913l-2.829-2.829z" fill="#FF5E7D" mask="url(#apa)"/></svg><svg width="19" height="15" fill="none" viewBox="-1 -1 19 15" id="check-white" x="151" y="150" xmlns="http://www.w3.org/2000/svg"><mask id="aqa" fill="#fff"><path fill-rule="evenodd" clip-rule="evenodd" d="M15.842 2.498a1 1 0 10-1.414-1.414l-9.331 9.331-3.248-3.247A1 1 0 10.435 8.582l3.955 3.955a1 1 0 001.414 0L15.842 2.498z"/></mask><path d="M5.097 10.415L3.683 11.83l1.414 1.414L6.51 11.83l-1.414-1.415zm9.331-7.917a1 1 0 010-1.414l2.829 2.829a3 3 0 000-4.243l-2.829 2.828zm1.414 0a1 1 0 01-1.414 0L17.257-.33a3 3 0 00-4.243 0l2.828 2.828zM6.511 11.83l9.331-9.332L13.014-.33 3.683 9.001 6.51 11.83zM.435 8.582l3.248 3.248L6.51 9 3.264 5.754.435 8.582zm1.414 0a1 1 0 01-1.414 0l2.829-2.828a3 3 0 00-4.243 0l2.828 2.828zm0-1.414a1 1 0 010 1.414L-.979 5.754a3 3 0 000 4.243l2.828-2.829zm3.955 3.955L1.849 7.168-.979 9.997l3.954 3.954 2.829-2.828zm-1.414 0a1 1 0 011.414 0L2.975 13.95a3 3 0 004.243 0L4.39 11.123zM14.428 1.084L4.39 11.123l2.828 2.828L17.257 3.913l-2.829-2.829z" fill="#fff" mask="url(#aqa)"/></svg><svg width="13" height="11" fill="none" viewBox="-1 -1 13 11" id="checkbox" x="82" y="64" xmlns="http://www.w3.org/2000/svg"><mask id="ara" fill="#fff"><path fill-rule="evenodd" clip-rule="evenodd" d="M10.094 2.512A1 1 0 008.68 1.097L3.343 6.434 1.929 5.02A1 1 0 00.514 6.434l2.122 2.122a1 1 0 001.414 0l6.044-6.044z"/></mask><path d="M10.094 2.512L8.68 1.097l1.414 1.415zM8.68 1.097L7.266-.317 8.68 1.097zM3.343 6.434L1.929 7.848l1.414 1.415 1.414-1.415-1.414-1.414zm.707 2.122L5.464 9.97 4.05 8.556zm4.63-6.044a1 1 0 010-1.415l2.828 2.829a3 3 0 000-4.243L8.68 2.512zm1.414 0a1 1 0 01-1.414 0l2.828-2.829a3 3 0 00-4.242 0l2.828 2.829zM4.757 7.849l5.337-5.337L7.266-.317 1.929 5.02 4.757 7.85zM.514 6.433L1.93 7.848 4.757 5.02 3.343 3.606.514 6.434zm1.415 0a1 1 0 01-1.415 0l2.829-2.828a3 3 0 00-4.243 0L1.93 6.434zm0-1.414a1 1 0 010 1.414L-.9 3.606a3 3 0 000 4.242L1.93 5.02zM4.05 7.141l-2.121-2.12L-.9 7.847 1.222 9.97 4.05 7.14zm-1.414 0a1 1 0 011.414 0L1.222 9.97a3 3 0 004.242 0L2.636 7.14zM8.68 1.097L2.636 7.141 5.464 9.97l6.044-6.044L8.68 1.097z" fill="#171C2B" mask="url(#ara)"/></svg><svg width="19" height="15" fill="none" viewBox="-1 -1 19 15" id="checkbox-scheduler" y="170" xmlns="http://www.w3.org/2000/svg"><path fill-rule="evenodd" clip-rule="evenodd" d="M15.556 2.121l.708-.707L14.849 0l-.707.707L4.95 9.9l-.707-.708-2.122-2.12-.707-.708L0 7.778l.707.707 2.121 2.122.708.707 1.414 1.414.707-.707 9.9-9.9z" fill="#426ED1"/></svg><svg width="14" height="14" fill="none" viewBox="-1 -1 14 14" id="close" x="197" y="165" xmlns="http://www.w3.org/2000/svg"><path d="M12 1.2L10.8 0 6 4.8 1.2 0 0 1.2 4.8 6 0 10.8 1.2 12 6 7.2l4.8 4.8 1.2-1.2L7.2 6 12 1.2z" fill="#001A34"/></svg><svg width="16" height="16" fill="none" viewBox="-1 -1 16 16" id="close-black" x="197" y="70" xmlns="http://www.w3.org/2000/svg"><mask id="aua" fill="#fff"><path fill-rule="evenodd" clip-rule="evenodd" d="M13.542 1.872A1 1 0 0012.128.458l-5.15 5.15L1.83.457A1 1 0 10.415 1.872l5.15 5.15-5.15 5.149a1 1 0 001.414 1.414l5.15-5.15 5.149 5.15a1 1 0 001.414-1.414l-5.15-5.15 5.15-5.149z"/></mask><path d="M13.542.458l-1.414 1.414L13.542.458zm0 1.414L12.128.458l1.414 1.414zM12.128.458l1.414 1.414L12.128.458zm-5.15 5.15L5.564 7.021l1.414 1.414 1.415-1.414-1.415-1.415zM1.83.457L3.243-.956 1.83.458zm-1.414 0L-1-.956.415.458zm0 1.414L-1 3.286.415 1.872zm5.15 5.15l1.413 1.414 1.415-1.414-1.415-1.415-1.414 1.415zM.414 12.17l1.414 1.414-1.414-1.414zm0 1.414l1.414-1.414-1.414 1.414zm1.414 0L.415 12.171l1.414 1.414zm5.15-5.15l1.414-1.413-1.415-1.415-1.414 1.415 1.414 1.414zm5.149 5.15l1.414-1.414-1.414 1.414zm1.414 0l-1.414-1.414 1.414 1.414zm0-1.414l-1.414 1.414 1.414-1.414zm-5.15-5.15L6.979 5.608 5.564 7.022l1.414 1.414 1.415-1.414zm3.736-5.149a1 1 0 010-1.414l2.828 2.828a3 3 0 000-4.242l-2.828 2.828zm1.414 0a1 1 0 01-1.414 0l2.828-2.828a3 3 0 00-4.242 0l2.828 2.828zm-5.15 5.15l5.15-5.15-2.828-2.828-5.15 5.15 2.829 2.828zM.416 1.872l5.15 5.15 2.828-2.829-5.15-5.15-2.828 2.83zm1.414 0a1 1 0 01-1.414 0L3.243-.956a3 3 0 00-4.242 0l2.828 2.828zm0-1.414a1 1 0 010 1.414L-.999-.956a3 3 0 000 4.242L1.829.458zm5.15 5.15L1.828.457-.999 3.286l5.149 5.15 2.828-2.829zm-5.15 7.977l5.15-5.15L4.15 5.608-1 10.757l2.83 2.828zm0-1.414a1 1 0 010 1.414l-2.828-2.828a3 3 0 000 4.242l2.828-2.828zm-1.414 0a1 1 0 011.414 0l-2.828 2.828a3 3 0 004.242 0L.415 12.171zm5.15-5.15l-5.15 5.15 2.828 2.828 5.15-5.149-2.829-2.828zm7.977 5.15l-5.15-5.15L5.565 9.85l5.15 5.15 2.828-2.83zm-1.414 0a1 1 0 011.414 0l-2.828 2.828a3 3 0 004.242 0l-2.828-2.828zm0 1.414a1 1 0 010-1.414l2.828 2.828a3 3 0 000-4.242l-2.828 2.828zm-5.15-5.15l5.15 5.15 2.828-2.828-5.15-5.15-2.828 2.829zm5.15-7.977l-5.15 5.15 2.829 2.828 5.15-5.15-2.83-2.828z" fill="#000" mask="url(#aua)"/></svg><svg id="close-blue" data-name="Layer 1" viewBox="-1 -1 16 16" width="16" height="16" x="197" y="86" xmlns="http://www.w3.org/2000/svg"><defs><style>.avcls-1{fill:#fff;fill-rule:evenodd}.avcls-2{mask:url(#avmask)}.avcls-3{fill:#426ed1}</style><mask id="avmask" x="-1.88" y="-1.83" width="17.71" height="17.71" maskUnits="userSpaceOnUse"><path class="avcls-1" d="M13.54 1.87A1 1 0 1012.13.46L7 5.61 1.83.46a1 1 0 00-1.42 0 1 1 0 000 1.41L5.56 7 .41 12.17a1 1 0 001.42 1.42L7 8.44l5.15 5.15a1 1 0 001.41 0 1 1 0 000-1.42L8.39 7z" id="avpath-1-inside-1"/></mask></defs><g class="avcls-2"><path class="avcls-3" d="M13.54.46l-1.41 1.41zm0 1.41L12.13.46zM12.13.46l1.41 1.41zM7 5.61L5.56 7 7 8.44 8.39 7zM1.83.46L3.24-1zM.41.46L-1-1zm0 1.41L-1 3.29zM5.56 7L7 8.44 8.39 7 7 5.61zM.41 12.17l1.42 1.42zm0 1.42l1.42-1.42zm1.42 0L.41 12.17zM7 8.44L8.39 7 7 5.61 5.56 7zm5.15 5.15l1.41-1.42zm1.41 0l-1.41-1.42zm0-1.42l-1.41 1.42zM8.39 7L7 5.61 5.56 7 7 8.44zm3.74-5.15a1 1 0 010-1.41L15 3.29A3 3 0 0015-1zm1.41 0a1 1 0 01-1.41 0L15-1a3 3 0 00-4.25 0zM8.39 7l5.15-5.15L10.71-1 5.56 4.19zm-8-5.15L5.56 7l2.83-2.81L3.24-1zm1.42 0a1 1 0 01-1.42 0L3.24-1A3 3 0 00-1-1zm0-1.41a1 1 0 010 1.41L-1-1a3 3 0 000 4.29zM7 5.61L1.83.46-1 3.29l5.15 5.15zm-5.15 8L7 8.44 4.15 5.61-1 10.76zm0-1.42a1 1 0 010 1.42L-1 10.76A3 3 0 00-1 15zm-1.42 0a1 1 0 011.42 0L-1 15a3 3 0 004.24 0zM5.56 7L.41 12.17 3.24 15l5.15-5.15zm8 5.15L8.39 7 5.56 9.85 10.71 15zm-1.41 0a1 1 0 011.41 0L10.71 15A3 3 0 0015 15zm0 1.42a1 1 0 010-1.42L15 15a3 3 0 000-4.24zM7 8.44l5.15 5.15L15 10.76 9.81 5.61zm5.15-8L7 5.61l2.81 2.83L15 3.29z"/></g></svg><svg width="16" height="16" fill="none" viewBox="-1 -1 16 16" id="close-red" x="197" y="102" xmlns="http://www.w3.org/2000/svg"><mask id="awa" fill="#fff"><path fill-rule="evenodd" clip-rule="evenodd" d="M13.542 1.872A1 1 0 0012.128.458l-5.15 5.15L1.83.457A1 1 0 10.415 1.872l5.15 5.15-5.15 5.149a1 1 0 001.414 1.414l5.15-5.15 5.149 5.15a1 1 0 001.414-1.414l-5.15-5.15 5.15-5.149z"/></mask><path d="M13.542.458l-1.414 1.414L13.542.458zm0 1.414L12.128.458l1.414 1.414zM12.128.458l1.414 1.414L12.128.458zm-5.15 5.15L5.564 7.021l1.414 1.414 1.415-1.414-1.415-1.415zM1.83.457L3.243-.956 1.83.458zm-1.414 0L-1-.956.415.458zm0 1.414L1.829.458.415 1.872zm5.15 5.15l1.413 1.414 1.415-1.414-1.415-1.415-1.414 1.415zM.414 12.17l1.414 1.414-1.414-1.414zm0 1.414l1.414-1.414-1.414 1.414zm1.414 0L.415 12.171l1.414 1.414zm5.15-5.15l1.414-1.413-1.415-1.415-1.414 1.415 1.414 1.414zm5.149 5.15l1.414-1.414-1.414 1.414zm1.414 0l-1.414-1.414 1.414 1.414zm0-1.414l-1.414 1.414 1.414-1.414zm-5.15-5.15L6.979 5.608 5.564 7.022l1.414 1.414 1.415-1.414zm3.736-5.149a1 1 0 010-1.414l2.828 2.828a3 3 0 000-4.242l-2.828 2.828zm1.414 0a1 1 0 01-1.414 0l2.828-2.828a3 3 0 00-4.242 0l2.828 2.828zm-5.15 5.15l5.15-5.15-2.828-2.828-5.15 5.15 2.829 2.828zM.416 1.872l5.15 5.15 2.828-2.829-5.15-5.15-2.828 2.83zm1.414 0a1 1 0 01-1.414 0L3.243-.956a3 3 0 00-4.242 0l2.828 2.828zm0-1.414a1 1 0 010 1.414L-.999-.956a3 3 0 000 4.242L1.829.458zm5.15 5.15L1.828.457-.999 3.286l5.149 5.15 2.828-2.829zm-5.15 7.977l5.15-5.15L4.15 5.608-1 10.757l2.829 2.828zm0-1.414a1 1 0 010 1.414l-2.828-2.828a3 3 0 000 4.242l2.828-2.828zm-1.414 0a1 1 0 011.414 0l-2.828 2.828a3 3 0 004.242 0L.415 12.171zm5.15-5.15l-5.15 5.15 2.828 2.828 5.15-5.149-2.829-2.828zm7.977 5.15l-5.15-5.15L5.565 9.85l5.15 5.15 2.828-2.83zm-1.414 0a1 1 0 011.414 0l-2.828 2.828a3 3 0 004.242 0l-2.828-2.828zm0 1.414a1 1 0 010-1.414l2.828 2.828a3 3 0 000-4.242l-2.828 2.828zm-5.15-5.15l5.15 5.15 2.828-2.828-5.15-5.15-2.828 2.829zm5.15-7.977l-5.15 5.15 2.829 2.828 5.15-5.15-2.83-2.828z" fill="#FF5E7D" mask="url(#awa)"/></svg><svg width="16" height="16" fill="none" viewBox="-1 -1 16 16" id="close-white" x="197" y="118" xmlns="http://www.w3.org/2000/svg"><mask id="axa" fill="#fff"><path fill-rule="evenodd" clip-rule="evenodd" d="M13.542 1.872A1 1 0 0012.128.458l-5.15 5.15L1.83.457A1 1 0 10.415 1.872l5.15 5.15-5.15 5.149a1 1 0 001.414 1.414l5.15-5.15 5.149 5.15a1 1 0 001.414-1.414l-5.15-5.15 5.15-5.149z"/></mask><path d="M13.542.458l-1.414 1.414L13.542.458zm0 1.414L12.128.458l1.414 1.414zM12.128.458l1.414 1.414L12.128.458zm-5.15 5.15L5.564 7.021l1.414 1.414 1.415-1.414-1.415-1.415zM1.83.457L3.243-.956 1.83.458zm-1.414 0L-1-.956.415.458zm0 1.414L-1 3.286.415 1.872zm5.15 5.15l1.413 1.414 1.415-1.414-1.415-1.415-1.414 1.415zM.414 12.17l1.414 1.414-1.414-1.414zm0 1.414l1.414-1.414-1.414 1.414zm1.414 0L.415 12.171l1.414 1.414zm5.15-5.15l1.414-1.413-1.415-1.415-1.414 1.415 1.414 1.414zm5.149 5.15l1.414-1.414-1.414 1.414zm1.414 0l-1.414-1.414 1.414 1.414zm0-1.414l-1.414 1.414 1.414-1.414zm-5.15-5.15L6.979 5.608 5.564 7.022l1.414 1.414 1.415-1.414zm3.736-5.149a1 1 0 010-1.414l2.828 2.828a3 3 0 000-4.242l-2.828 2.828zm1.414 0a1 1 0 01-1.414 0l2.828-2.828a3 3 0 00-4.242 0l2.828 2.828zm-5.15 5.15l5.15-5.15-2.828-2.828-5.15 5.15 2.829 2.828zM.416 1.872l5.15 5.15 2.828-2.829-5.15-5.15-2.828 2.83zm1.414 0a1 1 0 01-1.414 0L3.243-.956a3 3 0 00-4.242 0l2.828 2.828zm0-1.414a1 1 0 010 1.414L-.999-.956a3 3 0 000 4.242L1.829.458zm5.15 5.15L1.828.457-.999 3.286l5.149 5.15 2.828-2.829zm-5.15 7.977l5.15-5.15L4.15 5.608-1 10.757l2.83 2.828zm0-1.414a1 1 0 010 1.414l-2.828-2.828a3 3 0 000 4.242l2.828-2.828zm-1.414 0a1 1 0 011.414 0l-2.828 2.828a3 3 0 004.242 0L.415 12.171zm5.15-5.15l-5.15 5.15 2.828 2.828 5.15-5.149-2.829-2.828zm7.977 5.15l-5.15-5.15L5.565 9.85l5.15 5.15 2.828-2.83zm-1.414 0a1 1 0 011.414 0l-2.828 2.828a3 3 0 004.242 0l-2.828-2.828zm0 1.414a1 1 0 010-1.414l2.828 2.828a3 3 0 000-4.242l-2.828 2.828zm-5.15-5.15l5.15 5.15 2.828-2.828-5.15-5.15-2.828 2.829zm5.15-7.977l-5.15 5.15 2.829 2.828 5.15-5.15-2.83-2.828z" fill="#fff" mask="url(#axa)"/></svg><svg id="copy" data-name="Layer 1" viewBox="-1 -1 38 38" width="38" height="38" x="44" xmlns="http://www.w3.org/2000/svg"><defs><style>.aycls-1{fill:#ff5e7d}</style></defs><g id="ay_1" data-name="1"><path class="aycls-1" d="M22.75 31H8.01c-.54 0-.97-.43-.97-.97V11.2c0-.54.43-.97.97-.97h14.74c.54 0 .97.43.97.97v18.83c0 .54-.43.97-.97.97zM8.98 29.06h12.8V12.17H8.98v16.89z"/><path class="aycls-1" d="M27.99 25.77h-5.23c-.54 0-.97-.43-.97-.97s.43-.97.97-.97h4.26V6.94h-12.8v4.26c0 .54-.43.97-.97.97s-.97-.43-.97-.97V5.97c0-.54.43-.97.97-.97h14.74c.54 0 .97.43.97.97V24.8c0 .54-.43.97-.97.97z"/></g></svg><svg width="18" height="18" fill="none" viewBox="-1 -1 18 18" id="edit" x="197" xmlns="http://www.w3.org/2000/svg"><path fill-rule="evenodd" clip-rule="evenodd" d="M15.306 2.653a.84.84 0 010 1.188l-1.535 1.535-3.148-3.147L12.16.694a.84.84 0 011.188 0l1.96 1.96zM.448 15.552v-3.147l9.286-9.286 3.147 3.147-9.286 9.286H.448z" fill="#426ED1"/></svg><svg width="20" height="20" fill="none" viewBox="-1 -1 20 20" id="geolocation" x="109" y="130" xmlns="http://www.w3.org/2000/svg"><path d="M8.555 16.477c.449 1.349 1.3 1.396 1.9.11L17.28 1.964c.6-1.288.044-1.843-1.243-1.243L1.412 7.545c-1.287.6-1.238 1.451.11 1.901l5.274 1.758 1.759 5.273z" fill="#fff"/></svg><svg width="20" height="20" fill="none" viewBox="-1 -1 20 20" id="geolocation-black" x="129" y="130" xmlns="http://www.w3.org/2000/svg"><path d="M8.555 16.477c.449 1.349 1.3 1.396 1.9.11L17.28 1.964c.6-1.288.044-1.843-1.243-1.243L1.412 7.545c-1.287.6-1.238 1.451.11 1.901l5.274 1.758 1.759 5.273z" fill="#000"/></svg><svg width="14" height="17" fill="none" viewBox="-1 -1 14 17" id="health" x="197" y="53" xmlns="http://www.w3.org/2000/svg"><path d="M.522 1.217L6 0l5.478 1.217a.667.667 0 01.522.651v6.658a4 4 0 01-1.781 3.328L6 15l-4.219-3.146A4 4 0 010 8.527V1.868a.667.667 0 01.522-.65zM5.333 6h-2v1.333h2v2h1.334v-2h2V6h-2V4H5.333v2z" fill="#33C66E"/></svg><svg id="health-big" data-name="Layer 1" viewBox="-1 -1 26 26" width="26" height="26" x="114" y="27" xmlns="http://www.w3.org/2000/svg"><defs><style>.bdcls-1{fill:#fff;fill-rule:evenodd}.bdcls-2{fill:#33c66e}</style></defs><path class="bdcls-1" d="M12 7.52A1.5 1.5 0 0010.51 9v1.49H9a1.5 1.5 0 000 3h1.49V15a1.5 1.5 0 003 0v-1.5H15a1.5 1.5 0 000-3h-1.5V9A1.5 1.5 0 0012 7.52z"/><path class="bdcls-2" d="M3.24 2L12 0l8.76 2a1 1 0 01.84 1v10.64A6.43 6.43 0 0118.75 19L12 24l-6.75-5a6.43 6.43 0 01-2.85-5.36V3a1 1 0 01.84-1zm7.69 7.6h-3.2v2.13h3.2v3.2h2.14v-3.2h3.2V9.6h-3.2V6.4h-2.14z"/></svg><svg width="22" height="20" fill="none" viewBox="-1 -1 22 20" id="heart-black" y="130" xmlns="http://www.w3.org/2000/svg"><path d="M10 15.842L2.876 8.718a4.139 4.139 0 015.86-5.84l.563.553.707.696.701-.702.558-.557a4.139 4.139 0 015.856 5.844L10 15.842z" stroke="#000" stroke-width="2"/></svg><svg width="22" height="20" fill="none" viewBox="-1 -1 22 20" id="heart-button" x="22" y="130" xmlns="http://www.w3.org/2000/svg"><path d="M10 15.842L2.876 8.719a4.139 4.139 0 015.86-5.84l.563.553.707.695.701-.702.558-.557a4.139 4.139 0 015.856 5.844L10 15.842z" stroke="#426ED1" stroke-width="2"/></svg><svg width="22" height="20" fill="none" viewBox="-1 -1 22 20" id="heart-button-fill" x="44" y="130" xmlns="http://www.w3.org/2000/svg"><path d="M10 15.842L2.876 8.719a4.139 4.139 0 015.86-5.84l.563.553.707.695.701-.702.558-.557a4.139 4.139 0 015.856 5.844L10 15.842z" fill="#426ED1" stroke="#426ED1" stroke-width="2"/></svg><svg width="22" height="20" fill="none" viewBox="-1 -1 22 20" id="heart-white" x="66" y="130" xmlns="http://www.w3.org/2000/svg"><path d="M10 15.842L2.876 8.719a4.139 4.139 0 015.86-5.84l.563.553.707.695.701-.702.558-.557a4.139 4.139 0 015.856 5.844L10 15.842z" stroke="#fff" stroke-width="2"/></svg><svg width="21" height="20" fill="none" viewBox="-1 -1 21 20" id="image-add" x="88" y="130" xmlns="http://www.w3.org/2000/svg"><mask id="bia" fill="#fff"><path fill-rule="evenodd" clip-rule="evenodd" d="M10.014 1.065a1 1 0 10-2 0v6.972H1.056a1 1 0 100 2h6.958v6.93a1 1 0 102 0v-6.93h7.006a1 1 0 000-2h-7.005V1.065z"/></mask><path d="M8.014 8.037v2h2v-2h-2zm0 2h2v-2h-2v2zm2 0v-2h-2v2h2zm0-2h-2v2h2v-2zm-1-5.972a1 1 0 01-1-1h4a3 3 0 00-3-3v4zm1-1a1 1 0 01-1 1v-4a3 3 0 00-3 3h4zm0 6.972V1.065h-4v6.972h4zm-8.958 2h6.958v-4H1.056v4zm1-1a1 1 0 01-1 1v-4a3 3 0 00-3 3h4zm-1-1a1 1 0 011 1h-4a3 3 0 003 3v-4zm6.958 0H1.056v4h6.958v-4zm2 8.93v-6.93h-4v6.93h4zm-1-1a1 1 0 011 1h-4a3 3 0 003 3v-4zm-1 1a1 1 0 011-1v4a3 3 0 003-3h-4zm0-6.93v6.93h4v-6.93h-4zm9.006-2h-7.005v4h7.005v-4zm-1 1a1 1 0 011-1v4a3 3 0 003-3h-4zm1 1a1 1 0 01-1-1h4a3 3 0 00-3-3v4zm-7.005 0h7.005v-4h-7.005v4zm-2-8.972v6.972h4V1.065h-4z" fill="#426ED1" mask="url(#bia)"/></svg><svg width="16" height="16" fill="none" viewBox="-1 -1 16 16" id="image-remove" x="197" y="134" xmlns="http://www.w3.org/2000/svg"><mask id="bja" fill="#fff"><path fill-rule="evenodd" clip-rule="evenodd" d="M13.542 1.872A1 1 0 1012.128.458l-5.15 5.15-5.15-5.15A1 1 0 10.416 1.872l5.15 5.15-5.15 5.149a1 1 0 001.414 1.414l5.15-5.15 5.149 5.15a1 1 0 001.414-1.414l-5.15-5.15 5.15-5.149z"/></mask><path d="M13.542.458l-1.414 1.414L13.542.458zm0 1.414L12.128.458l1.414 1.414zM12.128.458l1.414 1.414L12.128.458zm-5.15 5.15L5.564 7.021l1.414 1.414 1.415-1.414-1.415-1.415zM1.828.457L3.244-.956 1.83.458zm-1.413 0L-1-.956.415.458zm0 1.414L1.829.458.415 1.872zm5.15 5.15l1.413 1.414 1.415-1.414-1.415-1.415-1.414 1.415zM.414 12.17l1.414 1.414-1.414-1.414zm0 1.414l1.414-1.414-1.414 1.414zm1.414 0L.415 12.171l1.414 1.414zm5.15-5.15l1.414-1.413-1.415-1.415-1.414 1.415 1.414 1.414zm5.149 5.15l1.414-1.414-1.414 1.414zm1.414 0l-1.414-1.414 1.414 1.414zm0-1.414l-1.414 1.414 1.414-1.414zm-5.15-5.15L6.979 5.608 5.564 7.022l1.414 1.414 1.415-1.414zm3.736-5.149a1 1 0 010-1.414l2.828 2.828a3 3 0 000-4.242l-2.828 2.828zm1.414 0a1 1 0 01-1.414 0l2.828-2.828a3 3 0 00-4.242 0l2.828 2.828zm-5.15 5.15l5.15-5.15-2.829-2.828-5.149 5.15 2.829 2.828zM.416 1.872l5.15 5.15 2.828-2.829-5.15-5.15-2.828 2.83zm1.414 0a1 1 0 01-1.414 0L3.243-.956a3 3 0 00-4.242 0l2.828 2.828zm0-1.414a1 1 0 010 1.414L-1-.956a3 3 0 000 4.242L1.829.458zm5.15 5.15L1.828.457-1 3.286l5.149 5.15 2.828-2.829zm-5.15 7.977l5.15-5.15-2.83-2.828-5.148 5.15 2.828 2.828zm0-1.414a1 1 0 010 1.414L-1 10.757a3 3 0 000 4.242l2.828-2.828zm-1.414 0a1 1 0 011.414 0L-1 14.999a3 3 0 004.242 0L.415 12.171zm5.15-5.15l-5.15 5.15 2.828 2.828 5.15-5.149-2.829-2.828zm7.977 5.15l-5.15-5.15L5.565 9.85l5.15 5.15 2.828-2.83zm-1.414 0a1 1 0 011.414 0l-2.829 2.828a3 3 0 004.243 0l-2.828-2.828zm0 1.414a1 1 0 010-1.414l2.828 2.828a3 3 0 000-4.242l-2.828 2.828zm-5.15-5.15l5.15 5.15 2.828-2.828-5.15-5.15-2.828 2.829zm5.15-7.977l-5.15 5.15 2.829 2.828 5.15-5.15-2.83-2.828z" fill="#fff" mask="url(#bja)"/></svg><svg width="14" height="14" fill="none" viewBox="-1 -1 14 14" id="info" x="68" y="106" xmlns="http://www.w3.org/2000/svg"><circle cx="6" cy="6" r="5.374" stroke="#fff"/><rect x="5.329" y="4.657" width="1.343" height="4.7" rx=".671" fill="#fff"/><circle cx="6" cy="3.314" r=".671" fill="#fff"/></svg><svg width="20" height="14" fill="none" viewBox="-1 -1 20 14" id="item-next" x="164" y="131" xmlns="http://www.w3.org/2000/svg"><path d="M11.658.21l.094.083 5 5a.996.996 0 01.079.088l-.079-.088c.036.035.068.073.097.112l.072.11.05.104.036.107.023.1.014.115-.002.134-.012.1-.027.113-.033.093-.033.072-.047.083-.064.09-.074.081-5 5a1 1 0 01-1.497-1.32l.083-.094L13.63 7H1.077a1 1 0 01-.116-1.993L1.077 5h12.554l-3.293-3.293A1 1 0 0111.557.14l.101.07z" fill="#426ED1"/></svg><svg width="20" height="14" fill="none" viewBox="-1 -1 20 14" id="item-prev" x="48" y="106" xmlns="http://www.w3.org/2000/svg"><path d="M6.342.21l-.094.083-5 5a1.005 1.005 0 00-.079.088l.079-.088a1.008 1.008 0 00-.097.112l-.072.11-.05.104-.036.107-.023.1-.014.115.001.134.013.1.027.113.033.093.033.072.047.083.064.09.074.081 5 5a1 1 0 001.497-1.32l-.083-.094L4.37 7h12.553a1 1 0 00.117-1.993L16.922 5H4.369l3.293-3.293A1 1 0 006.443.14l-.101.07z" fill="#426ED1"/></svg><svg width="23" height="20" fill="none" viewBox="-1 -1 23 20" id="login-black" x="141" xmlns="http://www.w3.org/2000/svg"><path fill-rule="evenodd" clip-rule="evenodd" d="M8.327 1.638C8 2.28 8 3.12 8 4.8V8h6.07l-1.292-1.293a1 1 0 011.218-1.567l.102.07.094.083 3 3a1 1 0 01.097.112l.071.11.05.104.037.107.023.1.013.115v.134l-.013.1-.027.113-.033.093-.033.072-.048.083-.064.09-.073.081-3 3a1 1 0 01-1.497-1.32l.083-.094L14.07 10H8v3.2c0 1.68 0 2.52.327 3.162a3 3 0 001.311 1.311C10.28 18 11.12 18 12.8 18h3.4c1.68 0 2.52 0 3.162-.327a3 3 0 001.311-1.311C21 15.72 21 14.88 21 13.2V4.8c0-1.68 0-2.52-.327-3.162A3 3 0 0019.362.327C18.72 0 17.88 0 16.2 0h-3.4c-1.68 0-2.52 0-3.162.327a3 3 0 00-1.311 1.311zM8 8H1.517l-.117.007A1 1 0 001.517 10H8V8z" fill="#000"/></svg><svg width="23" height="20" fill="none" viewBox="-1 -1 23 20" id="login-white" x="141" y="20" xmlns="http://www.w3.org/2000/svg"><path fill-rule="evenodd" clip-rule="evenodd" d="M8.327 1.638C8 2.28 8 3.12 8 4.8V8h6.07l-1.292-1.293a1 1 0 011.218-1.567l.102.07.094.083 3 3a1 1 0 01.097.112l.071.11.05.104.037.107.023.1.013.115v.134l-.013.1-.027.113-.033.093-.033.072-.048.083-.064.09-.073.081-3 3a1 1 0 01-1.497-1.32l.083-.094L14.07 10H8v3.2c0 1.68 0 2.52.327 3.162a3 3 0 001.311 1.311C10.28 18 11.12 18 12.8 18h3.4c1.68 0 2.52 0 3.162-.327a3 3 0 001.311-1.311C21 15.72 21 14.88 21 13.2V4.8c0-1.68 0-2.52-.327-3.162A3 3 0 0019.362.327C18.72 0 17.88 0 16.2 0h-3.4c-1.68 0-2.52 0-3.162.327a3 3 0 00-1.311 1.311zM8 8H1.517l-.117.007A1 1 0 001.517 10H8V8z" fill="#fff"/></svg><svg width="19" height="20" fill="none" viewBox="-1 -1 19 20" id="map-black" y="150" xmlns="http://www.w3.org/2000/svg"><path fill-rule="evenodd" clip-rule="evenodd" d="M9.06 17.339C-2.492 17.339-1.97.832 8.873.832c10.807 0 10.743 16.507.187 16.507zM7.306 2.082a8.413 8.413 0 011.556-.142c1.643 0 2.995.443 4.067 1.18l-.309.748-.714.144-.703-.31-1.055.448-.417.885-1.33-.748-.82.748.539.624-.096.967 1.264-.279.088 1.1 1.023.046.019-1.04 1.61.533-.285 1.595-1.25-.338-.84.275-1.591-.91-1.683.69-.278 1.345.583 1.399 1.77.471-.256 2.204.339 1.496 1.544-.121 1.817-2.607 1.395-.748-.865-.252-.705-1.55.323-.733.935 1.629 1.365-.69-.187-.629-.434-.065-.56-.589.235-.357 1.445.55.985.895c-.33 3.263-2.61 6.284-6.809 6.284-2.917 0-4.943-1.217-6.12-2.939l1.32-1.87L2.936 9.77l-.437-4.093c.16-.315.342-.618.548-.905L5.13 4.9l2.375-1.683-.199-1.135z" fill="#000"/></svg><svg width="19" height="20" fill="none" viewBox="-1 -1 19 20" id="map-red" x="19" y="150" xmlns="http://www.w3.org/2000/svg"><path fill-rule="evenodd" clip-rule="evenodd" d="M9.06 17.339C-2.492 17.339-1.97.832 8.873.832c10.807 0 10.743 16.507.187 16.507zM7.306 2.082a8.413 8.413 0 011.556-.142c1.643 0 2.995.443 4.067 1.18l-.309.748-.714.144-.703-.31-1.055.448-.417.885-1.33-.748-.82.748.539.624-.096.967 1.264-.279.088 1.1 1.023.046.019-1.04 1.61.534-.285 1.594-1.25-.338-.84.275-1.591-.91-1.683.69-.278 1.345.583 1.399 1.77.471-.256 2.204.339 1.496 1.544-.121 1.817-2.607 1.395-.748-.865-.252-.705-1.55.323-.733.935 1.629 1.365-.69-.187-.628-.434-.066-.56-.589.235-.357 1.445.55.985.895c-.33 3.263-2.61 6.284-6.809 6.284-2.917 0-4.943-1.217-6.12-2.939l1.32-1.87L2.936 9.77l-.437-4.093c.16-.315.342-.618.548-.905l2.084.13 2.375-1.684-.199-1.135z" fill="#FF5E7D"/></svg><svg width="19" height="20" fill="none" viewBox="-1 -1 19 20" id="map-white" x="38" y="150" xmlns="http://www.w3.org/2000/svg"><path fill-rule="evenodd" clip-rule="evenodd" d="M9.06 17.339C-2.492 17.339-1.97.832 8.873.832c10.807 0 10.743 16.507.187 16.507zM7.306 2.082a8.414 8.414 0 011.556-.142c1.643 0 2.995.444 4.067 1.18l-.309.748-.714.144-.703-.31-1.055.448-.417.885-1.33-.748-.82.748.539.624-.096.967 1.264-.279.088 1.1 1.023.046.019-1.04 1.61.534-.285 1.594-1.25-.338-.84.275-1.591-.91-1.683.69-.278 1.345.583 1.399 1.77.471-.256 2.204.339 1.496 1.544-.121 1.817-2.607 1.395-.747-.865-.253-.705-1.55.323-.733.935 1.629 1.365-.69-.187-.628-.434-.066-.56-.589.235-.357 1.445.55.985.895c-.33 3.263-2.61 6.284-6.809 6.284-2.917 0-4.943-1.217-6.12-2.939l1.32-1.87L2.936 9.77l-.437-4.093c.16-.315.342-.618.548-.905l2.084.13 2.375-1.684-.199-1.135z" fill="#fff"/></svg><svg width="22" height="22" fill="none" viewBox="-1 -1 22 22" id="metro" x="164" xmlns="http://www.w3.org/2000/svg"><path fill="#fff" d="M10 2.5a10 10 0 018.7 15H1.3c-.8-1.4-1.3-3.1-1.3-5a10 10 0 0110-10zM3 14H2v1.5h5.7V14h-.9l.9-2.3 2.3 3.9 2.4-4 .8 2.4h-.8v1.5H18V14h-1l-3.8-9.5L10 10 6.8 4.5 3.1 14z"/></svg><svg width="22" height="22" fill="none" viewBox="-1 -1 22 22" id="metro-dark" x="164" y="22" xmlns="http://www.w3.org/2000/svg"><path fill="#000" d="M10 2.5a10 10 0 018.7 15H1.3c-.8-1.4-1.3-3.1-1.3-5a10 10 0 0110-10zM3 14H2v1.5h5.7V14h-.9l.9-2.3 2.3 3.9 2.4-4 .8 2.4h-.8v1.5H18V14h-1l-3.8-9.5L10 10 6.8 4.5 3.1 14z"/></svg><svg width="14" height="20" fill="none" viewBox="-1 -1 14 20" id="phone-dark" x="64" y="44" xmlns="http://www.w3.org/2000/svg"><path d="M2.428 11.13C-1.126 4.973 1.27.837 1.27.837l3.337.779-.058 4.49-1.276 1.343 2.605 4.378 1.812-.39 3.831 2.186-1.234 3.54s-4.303.124-7.858-6.033z" fill="#000"/></svg><svg width="14" height="20" fill="none" viewBox="-1 -1 14 20" id="phone-white" x="149" y="130" xmlns="http://www.w3.org/2000/svg"><path d="M2.428 11.13C-1.126 4.973 1.27.837 1.27.837l3.337.779-.057 4.49-1.277 1.343 2.605 4.379 1.812-.39 3.831 2.185-1.234 3.54s-4.303.124-7.858-6.033z" fill="#fff"/></svg><svg width="26" height="30" fill="none" viewBox="-1 -1 26 30" id="pill" y="76" xmlns="http://www.w3.org/2000/svg"><g filter="url(#bwfilter0_d)"><path d="M20 12a8 8 0 11-16 0c0-6.5 8-12 8-12s8 6 8 12z" fill="#426ED1"/></g><defs><filter id="bwfilter0_d" x="0" y="0" width="24" height="28" filterUnits="userSpaceOnUse" color-interpolation-filters="sRGB"><feFlood flood-opacity="0" result="BackgroundImageFix"/><feColorMatrix in="SourceAlpha" values="0 0 0 0 0 0 0 0 0 0 0 0 0 0 0 0 0 0 127 0"/><feOffset dy="4"/><feGaussianBlur stdDeviation="2"/><feColorMatrix values="0 0 0 0 0.258951 0 0 0 0 0.429415 0 0 0 0 0.81802 0 0 0 0.2 0"/><feBlend in2="BackgroundImageFix" result="effect1_dropShadow"/><feBlend in="SourceGraphic" in2="effect1_dropShadow" result="shape"/></filter></defs></svg><svg width="23" height="23" fill="none" viewBox="-1 -1 23 23" id="remove" x="141" y="40" xmlns="http://www.w3.org/2000/svg"><path stroke="currentColor" stroke-linecap="round" stroke-linejoin="round" stroke-miterlimit="10" stroke-width="1.7" d="M16.406 6.563H4.594v11.156c0 .725.587 1.312 1.312 1.312h9.188c.725 0 1.312-.587 1.312-1.312V6.562zm-3.281-1.969h-5.25V3.28c0-.725.587-1.312 1.313-1.312h2.624c.726 0 1.313.587 1.313 1.312v1.313z"/><path stroke="currentColor" stroke-linecap="round" stroke-linejoin="round" stroke-miterlimit="10" stroke-width="1.7" d="M18.375 6.563H2.625V5.25c0-.362.294-.656.656-.656H17.72c.362 0 .656.294.656.656v1.313zM8.531 10.5l3.938 3.938m-3.938 0L12.47 10.5"/></svg><svg version="1.1" id="remove-blue" x="141" y="63" viewBox="-1 -1 23 23" xml:space="preserve" width="23" height="23" xmlns="http://www.w3.org/2000/svg"><style>.byst0{fill:none;stroke:#426ed1;stroke-width:1.7;stroke-linecap:round;stroke-linejoin:round;stroke-miterlimit:10}</style><path class="byst0" d="M16.4 6.6H4.6v11.2c0 .7.6 1.3 1.3 1.3h9.2c.7 0 1.3-.6 1.3-1.3V6.6zm-3.3-2H7.9V3.3c0-.7.6-1.3 1.3-1.3h2.6c.7 0 1.3.6 1.3 1.3v1.3z"/><path class="byst0" d="M18.4 6.6H2.6V5.2c0-.4.3-.7.7-.7h14.4c.4 0 .7.3.7.7v1.4zm-9.9 3.9l3.9 3.9m-3.9 0l3.9-3.9"/></svg><svg width="19" height="20" fill="none" viewBox="-1 -1 19 20" id="search-red" x="57" y="150" xmlns="http://www.w3.org/2000/svg"><circle cx="7.15" cy="7.109" r="5.788" stroke="#FF5E7D" stroke-width="2"/><path d="M11.197 11.696L15.5 16.5" stroke="#FF5E7D" stroke-width="2" stroke-linecap="round"/></svg><svg width="19" height="20" fill="none" viewBox="-1 -1 19 20" id="search-white" x="76" y="150" xmlns="http://www.w3.org/2000/svg"><circle cx="7.15" cy="7.109" r="5.788" stroke="#fff" stroke-width="2"/><path d="M11.197 11.696L15.5 16.5" stroke="#fff" stroke-width="2" stroke-linecap="round"/></svg><svg width="16" height="15" fill="none" viewBox="-1 -1 16 15" id="star" x="197" y="150" xmlns="http://www.w3.org/2000/svg"><path opacity=".1" d="M7 0l1.572 4.837h5.085l-4.114 2.99 1.572 4.836L7 9.673l-4.114 2.99 1.571-4.837-4.114-2.99h5.085L7 0z" fill="#426ED1"/></svg><svg id="star-border" data-name="Layer 1" viewBox="-1 -1 30 30" width="30" height="30" x="26" y="76" xmlns="http://www.w3.org/2000/svg"><defs><style>.cccls-1{fill:none;stroke:#426ed1;isolation:isolate;opacity:.6}</style></defs><path class="cccls-1" d="M14 2.11l2.68 8.24.27.84h9.55l-7 5.09-.72.53.28.84 2.68 8.24-7-5.09-.74-.52-.72.52-7 5.09L9 17.65l.28-.84-.72-.53-7-5.09h9.55l.27-.84z"/></svg><svg id="star-fill" data-name="Layer 1" viewBox="-1 -1 30 30" width="30" height="30" x="56" y="76" xmlns="http://www.w3.org/2000/svg"><defs><style>.cdcls-1{fill:#426ed1;stroke:#426ed1;isolation:isolate;opacity:.6}</style></defs><path class="cdcls-1" d="M14 2.11l2.68 8.24.27.84h9.55l-7 5.09-.72.53.28.84 2.68 8.24-7-5.09-.74-.52-.72.52-7 5.09L9 17.65l.28-.84-.72-.53-7-5.09h9.55l.27-.84z"/></svg><svg width="26" height="26" fill="none" viewBox="-1 -1 26 26" id="telegram" x="114" y="53" xmlns="http://www.w3.org/2000/svg"><path fill-rule="evenodd" clip-rule="evenodd" d="M12 24c6.627 0 12-5.373 12-12S18.627 0 12 0 0 5.373 0 12s5.373 12 12 12zm3.104-7.25l1.944-9.168c.173-.808-.29-1.124-.82-.926L4.802 11.059c-.78.304-.768.742-.132.94l2.922.914 6.786-4.273c.32-.213.61-.095.37.118l-5.489 4.96-.212 3.017c.304 0 .437-.132.595-.29l1.429-1.375 2.962 2.183c.543.305.926.143 1.072-.504z" fill="#fff"/></svg><svg width="23" height="20" fill="none" viewBox="-1 -1 23 20" id="telegram-blue" x="141" y="86" xmlns="http://www.w3.org/2000/svg"><path d="M18.665.717L.935 7.554C-.275 8.04-.268 8.715.713 9.016l4.552 1.42 10.532-6.645c.498-.303.953-.14.579.192l-8.533 7.701h-.002l.002.001-.314 4.692c.46 0 .663-.211.921-.46l2.211-2.15 4.599 3.397c.848.467 1.457.227 1.668-.785l3.019-14.228c.309-1.239-.473-1.8-1.282-1.434z" fill="#426ED1"/></svg><svg width="23" height="20" fill="none" viewBox="-1 -1 23 20" id="telegram-white" x="141" y="106" xmlns="http://www.w3.org/2000/svg"><path d="M18.665.717L.935 7.554C-.275 8.04-.268 8.715.713 9.016l4.552 1.42 10.532-6.645c.498-.303.953-.14.579.192l-8.533 7.701h-.002l.002.001-.314 4.692c.46 0 .663-.211.921-.46l2.211-2.15 4.599 3.397c.848.467 1.457.227 1.668-.785l3.019-14.228c.309-1.239-.473-1.8-1.282-1.434z" fill="#FFF"/></svg><svg width="22" height="22" fill="none" viewBox="-1 -1 22 22" id="timer-red" x="164" y="44" xmlns="http://www.w3.org/2000/svg"><path fill-rule="evenodd" clip-rule="evenodd" d="M15.226 18.32a9 9 0 003.404-9.882 5 5 0 10-7.668-6.387 9.102 9.102 0 00-1.924 0A5 5 0 101.37 8.438a9 9 0 0013.856 9.882zm1.697-15.626a3 3 0 01.769 3.631 9.03 9.03 0 00-4.48-3.735 3 3 0 013.71.104zM6.787 2.59a3 3 0 00-4.48 3.735 9.03 9.03 0 014.48-3.735zm9.275 11.91a7 7 0 11-12.124-7 7 7 0 0112.124 7z" fill="#FF5E7D"/></svg><svg id="twitter" data-name="Layer 1" viewBox="-1 -1 26 26" width="26" height="26" x="114" y="79" xmlns="http://www.w3.org/2000/svg"><defs><style>.cicls-1{fill:none}.cicls-2{fill:#fff}.cicls-3{fill:#1da1f2}</style></defs><path class="cicls-1" d="M-188-188h400v400h-400z"/><circle class="cicls-2" cx="12" cy="12" r="12"/><path class="cicls-3" d="M8.66 19.31a10.43 10.43 0 0010.51-10.5v-.48A7.6 7.6 0 0021 6.42a7.75 7.75 0 01-2.12.58 3.67 3.67 0 001.62-2 7.33 7.33 0 01-2.34.9 3.7 3.7 0 00-6.39 2.53 3.93 3.93 0 00.09.84 10.5 10.5 0 01-7.61-3.91 3.71 3.71 0 001.15 4.93 3.77 3.77 0 01-1.68-.46v.05a3.71 3.71 0 003 3.62 3.72 3.72 0 01-1.72.06 3.7 3.7 0 003.45 2.56 7.43 7.43 0 01-4.59 1.59 6.51 6.51 0 01-.86-.06 10.42 10.42 0 005.66 1.66"/></svg><svg version="1.1" id="up" viewBox="-1 -1 44 44" xml:space="preserve" width="44" height="44" xmlns="http://www.w3.org/2000/svg"><style>.cjst0{fill-rule:evenodd;clip-rule:evenodd;fill:#ff5e7d}</style><path class="cjst0" d="M34.7 24c1.7 1.7 4.4 1.7 6.1 0 1.7-1.7 1.7-4.4 0-6.1L24 1.3c-1.7-1.7-4.4-1.7-6.1 0L1.3 18c-1.7 1.7-1.7 4.4 0 6.1 1.7 1.7 4.4 1.7 6.1 0L21 10.3 34.7 24z"/><path class="cjst0" d="M16.9 18.4v19.4c0 2.4 1.9 4.3 4.3 4.3s4.3-1.9 4.3-4.3V14.2c0-2.4-1.9-4.3-4.3-4.3l-4.6 1.9"/></svg><svg width="18" height="20" fill="none" viewBox="-1 -1 18 20" id="user" x="95" y="150" xmlns="http://www.w3.org/2000/svg"><path fill-rule="evenodd" clip-rule="evenodd" d="M12.1 4.734a4.33 4.33 0 11-8.659 0 4.33 4.33 0 018.66 0zM9.394 16.641l1.617-6.475c2.412.115 4.336 2.087 4.336 4.526V16.1c0 .897-.727 1.624-1.623 1.624H1.817a1.624 1.624 0 01-1.624-1.624v-1.407c0-2.439 1.925-4.41 4.337-4.526l1.617 6.475 1.082-4.6-1.082-1.895h3.247L8.312 12.04l1.082 4.6z" fill="#fff"/></svg><svg width="27" height="28" fill="none" viewBox="-1 -1 27 28" id="viber-blue" x="86" y="76" xmlns="http://www.w3.org/2000/svg"><path d="M12.7 0c-1.9 0-6.6.2-9.1 2.6C1.8 4.3 1.1 6.9 1 10c-.2 4.9.9 8 2.7 9.6.4.3 1.4 1.1 3.3 1.7v2.5s0 1 .6 1.2c.1 0 .2.1.3.1.6 0 1.1-.7 1.8-1.4.6-.7 1.1-1.2 1.4-1.7h2.2c1.9 0 6.6-.2 9.1-2.6 1.8-1.8 2.5-4.4 2.5-7.7.1-.5.1-1.1.1-1.7-.1-3.7-1.2-6.2-2.7-7.6-.6-.5-3.2-2.4-8.8-2.4h-.8zm-.2 1.9h.9c5.3 0 7.3 1.7 7.5 1.9 1.2 1 1.9 3.2 2 6.1v.4c.1.6.1 1.1.1 1.4-.1 3-.7 5-1.9 6.3-2.1 1.9-6.5 2-7.7 2h-1.9l-1.6 1.8-1 1.1-.2.3c-.2.2-.5.6-.7.7v-4.5c-2-.5-2.8-1.2-3-1.4-1.4-1.2-2.2-4.1-2-8V9c.2-2.4.8-4 1.8-5.1 2.1-1.9 6.5-2 7.7-2zm-.1 2.2c-.5 0-.5.7 0 .7 3.7 0 6.9 2.5 6.9 7.2 0 .5.7.5.7 0 0-5.1-3.4-8-7.6-7.9zm-3.963.925a.875.875 0 00-.636.174c-1 .5-2.001 1.502-1.701 2.602 0 0 .2.899 1.3 2.799.6.9 1.1 1.7 1.6 2.3.5.7 1.3 1.5 2.1 2.1 1.6 1.3 4.1 2.6 5.2 2.9 1 .3 2.1-.7 2.6-1.7.2-.4.1-.9-.3-1.2-.6-.6-1.6-1.3-2.3-1.7-.5-.3-1.1-.1-1.3.2l-.5.6c-.2.3-.7.3-.7.3-3.3-.9-4.2-4.3-4.2-4.3s0-.4.3-.7l.6-.5c.3-.2.5-.8.2-1.3-.2-.3-.5-.9-.8-1.2C9.6 6 9 5.3 9 5.3a.962.962 0 00-.563-.275zM13.1 6.1c-.5-.1-.6.7-.1.7 2.8.2 4.4 2.1 4.3 4.5-.1.5.7.5.7 0 .1-2.8-1.7-5.1-4.9-5.2zm.3 1.9c-.5-.1-.5.7 0 .7 1.2 0 1.8.7 1.8 1.9.1.5.8.5.8 0C15.9 9 15 8 13.4 8z" fill="#426ED1"/></svg><svg width="18" height="18" fill="none" viewBox="-1 -1 18 18" id="video-blue" x="197" y="18" xmlns="http://www.w3.org/2000/svg"><path fill-rule="evenodd" clip-rule="evenodd" d="M15.392 7.106a1 1 0 010 1.788L2.266 15.458a1 1 0 01-1.447-.895V1.437A1 1 0 012.266.542l13.126 6.564z" fill="#426ED1"/></svg><svg width="22" height="22" fill="none" viewBox="-1 -1 22 22" id="whatsapp-blue" x="164" y="66" xmlns="http://www.w3.org/2000/svg"><path d="M9.516.012C4.206.262.017 4.652.033 9.929a9.798 9.798 0 001.085 4.465L.06 19.495a.387.387 0 00.47.453l5.034-1.184a9.98 9.98 0 004.284 1.032c5.427.083 9.951-4.195 10.12-9.58C20.15 4.441 15.351-.265 9.516.011v.001zm6.007 15.367a7.784 7.784 0 01-5.52 2.27 7.77 7.77 0 01-3.474-.808l-.701-.347-3.087.726.65-3.131-.346-.672A7.62 7.62 0 012.197 9.9c0-2.07.812-4.017 2.286-5.48a7.85 7.85 0 015.52-2.271c2.086 0 4.046.806 5.52 2.27a7.673 7.673 0 012.287 5.48c0 2.052-.825 4.03-2.287 5.481v-.001z" fill="#426ED1"/><path d="M14.842 12.045l-1.931-.55a.723.723 0 00-.713.186l-.472.478a.706.706 0 01-.765.16c-.913-.367-2.835-2.063-3.326-2.912a.694.694 0 01.056-.774l.412-.53a.71.71 0 00.089-.726L7.38 5.553a.723.723 0 00-1.125-.256c-.539.453-1.179 1.14-1.256 1.903-.137 1.343.443 3.036 2.637 5.07 2.535 2.349 4.566 2.66 5.887 2.341.75-.18 1.35-.903 1.727-1.494a.714.714 0 00-.408-1.072z" fill="#426ED1"/></svg><svg width="22" height="22" fill="none" viewBox="-1 -1 22 22" id="whatsapp-white" x="164" y="88" xmlns="http://www.w3.org/2000/svg"><path d="M9.516.012C4.206.262.017 4.652.033 9.929a9.798 9.798 0 001.085 4.465L.06 19.495a.387.387 0 00.47.453l5.034-1.184a9.98 9.98 0 004.284 1.032c5.427.083 9.951-4.195 10.12-9.58C20.15 4.441 15.351-.265 9.516.011v.001zm6.007 15.367a7.784 7.784 0 01-5.52 2.27 7.77 7.77 0 01-3.474-.808l-.701-.347-3.087.726.65-3.131-.346-.672A7.62 7.62 0 012.197 9.9c0-2.07.812-4.017 2.286-5.48a7.85 7.85 0 015.52-2.271c2.086 0 4.046.806 5.52 2.27a7.673 7.673 0 012.287 5.48c0 2.052-.825 4.03-2.287 5.481v-.001z" fill="#FFF"/><path d="M14.842 12.045l-1.931-.55a.723.723 0 00-.713.186l-.472.478a.706.706 0 01-.765.16c-.913-.367-2.835-2.063-3.326-2.912a.694.694 0 01.056-.774l.412-.53a.71.71 0 00.089-.726L7.38 5.553a.723.723 0 00-1.125-.256c-.539.453-1.179 1.14-1.256 1.903-.137 1.343.443 3.036 2.637 5.07 2.535 2.349 4.566 2.66 5.887 2.341.75-.18 1.35-.903 1.727-1.494a.714.714 0 00-.408-1.072z" fill="#FFF"/></svg></svg>